COVER ::
 
http://i.minus.com/iKI4hJGKAK7VX.png


SCREEN ::
 
http://i.minus.com/iPgfozrwJyD2R.png
 
http://i.minus.com/irYmdTZjjoORU.png
 
http://i.minus.com/iT6VWN6DK0Uvu.png
 
http://i.minus.com/ib1N2iyOaKT8wL.png
 
http://i.minus.com/ibiUGtK9CDWpM5.jpg


General Info ::
Format                           : AVI
Format/Info                      : Audio Video Interleave
File size                        : 44.6 MiB
Duration                         : 2mn 27s
Overall bit rate                 : 2 529 Kbps


Video Info ::
ID                               : 0
Format                           : AVC
Format/Info                      : Advanced Video Codec
Format profile                   : High@L5.1
Format settings, CABAC           : Yes
Format settings, ReFrames        : 2 frames
Codec ID                         : H264
Duration                         : 10s 0ms
Bit rate                         : 2 198 Kbps
Width                            : 1 280 pixels
Height                           : 544 pixels
Display aspect ratio             : 2.35:1
Frame rate                       : 30.000 fps
Color space                      : YUV
Chroma subsampling               : 4:2:0
Bit depth                        : 8 bits
Scan type                        : Progressive
Bits/(Pixel*Frame)               : 0.105
Stream size                      : 38.8 MiB (87%)


Audio Info ::
ID                               : 1
Format                           : MPEG Audio
Format version                   : Version 1
Format profile                   : Layer 3
Codec ID                         : 55
Codec ID/Hint                    : MP3
Duration                         : 2mn 27s
Bit rate mode                    : Constant
Bit rate                         : 320 Kbps
Channel(s)                       : 2 channels
Sampling rate                    : 48.0 KHz
Compression mode                 : Lossy
Stream size                      : 5.65 MiB (13%)